<svg width="50" height="64" viewBox="0 0 50 64" fill="none" xmlns="http://www.w3.org/2000/svg">
<path d="M33.882 52.2771L19.4727 33.5371C19.1566 33.1282 18.9794 32.5763 18.9794 32.0011C18.9794 31.4259 19.1566 30.874 19.4727 30.4651L33.8789 11.7251C34.1948 11.3137 34.3718 10.7599 34.3718 10.1831C34.3718 9.60628 34.1948 9.05253 33.8789 8.64111C33.7246 8.43851 33.5402 8.27751 33.3365 8.16757C33.1328 8.05764 32.914 8.001 32.693 8.001C32.4719 8.001 32.2531 8.05764 32.0494 8.16757C31.8458 8.27751 31.6613 8.43851 31.507 8.64111L17.1008 27.3771C16.1542 28.6112 15.6238 30.2716 15.6238 32.0011C15.6238 33.7306 16.1542 35.391 17.1008 36.6251L31.507 55.3611C31.6614 55.5643 31.846 55.7258 32.05 55.8361C32.2539 55.9464 32.4731 56.0033 32.6945 56.0033C32.916 56.0033 33.1351 55.9464 33.3391 55.8361C33.5431 55.7258 33.7277 55.5643 33.882 55.3611C34.1979 54.9497 34.3749 54.3959 34.3749 53.8191C34.3749 53.2423 34.1979 52.6885 33.882 52.2771Z" fill="black"/>
</svg>
