<svg width="50" height="64" viewBox="0 0 50 64" fill="none" xmlns="http://www.w3.org/2000/svg">
<path d="M16.118 11.7229L30.5273 30.4629C30.8434 30.8718 31.0206 31.4237 31.0206 31.9989C31.0206 32.5741 30.8434 33.126 30.5273 33.5349L16.1211 52.2749C15.8052 52.6863 15.6282 53.2401 15.6282 53.8169C15.6282 54.3937 15.8052 54.9475 16.1211 55.3589C16.2754 55.5615 16.4598 55.7225 16.6635 55.8324C16.8672 55.9424 17.086 55.999 17.307 55.999C17.5281 55.999 17.7469 55.9424 17.9506 55.8324C18.1542 55.7225 18.3387 55.5615 18.493 55.3589L32.8992 36.6229C33.8458 35.3888 34.3762 33.7284 34.3762 31.9989C34.3762 30.2694 33.8458 28.609 32.8992 27.3749L18.493 8.63889C18.3386 8.43568 18.154 8.27415 17.95 8.16386C17.7461 8.05356 17.5269 7.99673 17.3055 7.99673C17.084 7.99673 16.8649 8.05356 16.6609 8.16386C16.4569 8.27415 16.2723 8.43568 16.118 8.63889C15.8021 9.05031 15.6251 9.60406 15.6251 10.1809C15.6251 10.7577 15.8021 11.3115 16.118 11.7229Z" fill="black"/>
</svg>
